<svg width="198" height="36" viewBox="0 0 198 36" fill="none" xmlns="http://www.w3.org/2000/svg">
<path d="M49.654 10.334H48.198V14H46.105V4.9H48.198V8.579H49.706L52.098 4.9H54.321L51.344 9.294L54.412 14H52.02L49.654 10.334ZM62.9386 9.255C63.4932 9.41967 63.9179 9.68833 64.2126 10.061C64.5072 10.4337 64.6546 10.893 64.6546 11.439C64.6546 12.245 64.3469 12.8733 63.7316 13.324C63.1249 13.7747 62.2539 14 61.1186 14H56.6336V4.9H60.8716C61.9289 4.9 62.7522 5.10367 63.3416 5.511C63.9309 5.91833 64.2256 6.499 64.2256 7.253C64.2256 7.70367 64.1129 8.10233 63.8876 8.449C63.6622 8.787 63.3459 9.05567 62.9386 9.255ZM58.7266 8.67H60.6896C61.1489 8.67 61.4956 8.579 61.7296 8.397C61.9636 8.20633 62.0806 7.929 62.0806 7.565C62.0806 7.20967 61.9592 6.93667 61.7166 6.746C61.4826 6.55533 61.1402 6.46 60.6896 6.46H58.7266V8.67ZM61.0406 12.44C62.0286 12.44 62.5226 12.05 62.5226 11.27C62.5226 10.516 62.0286 10.139 61.0406 10.139H58.7266V12.44H61.0406ZM67.5551 4.9H69.6481V14H67.5551V4.9ZM80.0996 6.616H77.1876V14H75.1076V6.616H72.2086V4.9H80.0996V6.616ZM91.0029 4.9V14H88.8969V10.269H84.7629V14H82.6569V4.9H84.7629V8.488H88.8969V4.9H91.0029ZM94.5179 4.9H96.6109V10.828L100.953 4.9H102.929V14H100.849V8.085L96.5069 14H94.5179V4.9Z" fill="white"/>
<path d="M54.096 31.9298L54.084 25.8098L51.048 30.9098H50.496L47.46 25.8458V31.9298H46.308V23.5298H47.292L50.796 29.4338L54.252 23.5298H55.236L55.248 31.9298H54.096ZM60.7787 25.5098C61.6587 25.5098 62.3307 25.7258 62.7947 26.1578C63.2667 26.5898 63.5027 27.2338 63.5027 28.0898V31.9298H62.4107V31.0898C62.2187 31.3858 61.9427 31.6138 61.5827 31.7738C61.2307 31.9258 60.8107 32.0018 60.3227 32.0018C59.6107 32.0018 59.0387 31.8298 58.6067 31.4858C58.1827 31.1418 57.9707 30.6898 57.9707 30.1298C57.9707 29.5698 58.1747 29.1218 58.5827 28.7858C58.9907 28.4418 59.6387 28.2698 60.5267 28.2698H62.3507V28.0418C62.3507 27.5458 62.2067 27.1658 61.9187 26.9018C61.6307 26.6378 61.2067 26.5058 60.6467 26.5058C60.2707 26.5058 59.9027 26.5698 59.5427 26.6978C59.1827 26.8178 58.8787 26.9818 58.6307 27.1898L58.1507 26.3258C58.4787 26.0618 58.8707 25.8618 59.3267 25.7258C59.7827 25.5818 60.2667 25.5098 60.7787 25.5098ZM60.5147 31.1138C60.9547 31.1138 61.3347 31.0178 61.6547 30.8258C61.9747 30.6258 62.2067 30.3458 62.3507 29.9858V29.0978H60.5747C59.5987 29.0978 59.1107 29.4258 59.1107 30.0818C59.1107 30.4018 59.2347 30.6538 59.4827 30.8378C59.7307 31.0218 60.0747 31.1138 60.5147 31.1138ZM71.0971 26.5778H67.5691V31.9298H66.4171V25.5698H71.0971V26.5778ZM75.3845 25.5098C76.2645 25.5098 76.9365 25.7258 77.4005 26.1578C77.8725 26.5898 78.1085 27.2338 78.1085 28.0898V31.9298H77.0165V31.0898C76.8245 31.3858 76.5485 31.6138 76.1885 31.7738C75.8365 31.9258 75.4165 32.0018 74.9285 32.0018C74.2165 32.0018 73.6445 31.8298 73.2125 31.4858C72.7885 31.1418 72.5765 30.6898 72.5765 30.1298C72.5765 29.5698 72.7805 29.1218 73.1885 28.7858C73.5965 28.4418 74.2445 28.2698 75.1325 28.2698H76.9565V28.0418C76.9565 27.5458 76.8125 27.1658 76.5245 26.9018C76.2365 26.6378 75.8125 26.5058 75.2525 26.5058C74.8765 26.5058 74.5085 26.5698 74.1485 26.6978C73.7885 26.8178 73.4845 26.9818 73.2365 27.1898L72.7565 26.3258C73.0845 26.0618 73.4765 25.8618 73.9325 25.7258C74.3885 25.5818 74.8725 25.5098 75.3845 25.5098ZM75.1205 31.1138C75.5605 31.1138 75.9405 31.0178 76.2605 30.8258C76.5805 30.6258 76.8125 30.3458 76.9565 29.9858V29.0978H75.1805C74.2045 29.0978 73.7165 29.4258 73.7165 30.0818C73.7165 30.4018 73.8405 30.6538 74.0885 30.8378C74.3365 31.0218 74.6805 31.1138 75.1205 31.1138ZM84.3614 28.6178C84.7854 28.7298 85.1134 28.9098 85.3454 29.1578C85.5774 29.4058 85.6934 29.7138 85.6934 30.0818C85.6934 30.4578 85.5654 30.7938 85.3094 31.0898C85.0534 31.3778 84.6974 31.6058 84.2414 31.7738C83.7934 31.9338 83.2894 32.0138 82.7294 32.0138C82.2574 32.0138 81.7934 31.9538 81.3374 31.8338C80.8894 31.7058 80.4894 31.5258 80.1374 31.2938L80.4854 30.4178C80.7894 30.6098 81.1374 30.7618 81.5294 30.8738C81.9214 30.9778 82.3174 31.0298 82.7174 31.0298C83.2614 31.0298 83.6934 30.9378 84.0134 30.7538C84.3414 30.5618 84.5054 30.3058 84.5054 29.9858C84.5054 29.6898 84.3734 29.4618 84.1094 29.3018C83.8534 29.1418 83.4894 29.0618 83.0174 29.0618H81.8534V28.2338H82.9334C83.3654 28.2338 83.7054 28.1578 83.9534 28.0058C84.2014 27.8538 84.3254 27.6458 84.3254 27.3818C84.3254 27.0938 84.1774 26.8698 83.8814 26.7098C83.5934 26.5498 83.2014 26.4698 82.7054 26.4698C82.0734 26.4698 81.4054 26.6338 80.7014 26.9618L80.3894 26.0738C81.1654 25.6818 81.9774 25.4858 82.8254 25.4858C83.3374 25.4858 83.7974 25.5578 84.2054 25.7018C84.6134 25.8458 84.9334 26.0498 85.1654 26.3138C85.3974 26.5778 85.5134 26.8778 85.5134 27.2138C85.5134 27.5258 85.4094 27.8058 85.2014 28.0538C84.9934 28.3018 84.7134 28.4898 84.3614 28.6178ZM88.2848 25.5698H89.4368V30.2018L93.3368 25.5698H94.3808V31.9298H93.2288V27.2978L89.3408 31.9298H88.2848V25.5698ZM97.4568 25.5698H98.6088V28.2698H102.233V25.5698H103.385V31.9298H102.233V29.2658H98.6088V31.9298H97.4568V25.5698ZM116.311 29.2418H115.075V31.9298H113.923V29.2418H112.687L110.935 31.9298H109.567L111.751 28.6418L109.735 25.5698H110.959L112.675 28.2578H113.923V25.5698H115.075V28.2578H116.323L118.039 25.5698H119.275L117.259 28.6538L119.443 31.9298H118.075L116.311 29.2418ZM121.551 25.5698H122.703V30.2018L126.603 25.5698H127.647V31.9298H126.495V27.2978L122.607 31.9298H121.551V25.5698ZM135.055 28.6298C135.879 28.8378 136.291 29.3538 136.291 30.1778C136.291 30.7378 136.079 31.1698 135.655 31.4738C135.239 31.7778 134.615 31.9298 133.783 31.9298H130.723V25.5698H133.675C134.427 25.5698 135.015 25.7138 135.439 26.0018C135.863 26.2818 136.075 26.6818 136.075 27.2018C136.075 27.5378 135.983 27.8298 135.799 28.0778C135.623 28.3178 135.375 28.5018 135.055 28.6298ZM131.851 28.3058H133.579C134.019 28.3058 134.351 28.2258 134.575 28.0658C134.807 27.9058 134.923 27.6738 134.923 27.3698C134.923 26.7618 134.475 26.4578 133.579 26.4578H131.851V28.3058ZM133.699 31.0418C134.179 31.0418 134.539 30.9658 134.779 30.8138C135.019 30.6618 135.139 30.4258 135.139 30.1058C135.139 29.7778 135.027 29.5338 134.803 29.3738C134.587 29.2138 134.243 29.1338 133.771 29.1338H131.851V31.0418H133.699ZM138.934 25.5698H140.086V30.2018L143.986 25.5698H145.03V31.9298H143.878V27.2978L139.99 31.9298H138.934V25.5698ZM152.078 31.9298L150.242 29.4938L148.382 31.9298H147.098L149.606 28.6778L147.218 25.5698H148.502L150.254 27.8618L151.994 25.5698H153.254L150.854 28.6778L153.386 31.9298H152.078ZM161.973 29.2418H160.653V31.9298H159.501V25.5698H160.653V28.2578H161.997L164.061 25.5698H165.297L162.885 28.6298L165.465 31.9298H164.109L161.973 29.2418ZM171.845 28.6298C172.669 28.8378 173.081 29.3538 173.081 30.1778C173.081 30.7378 172.869 31.1698 172.445 31.4738C172.029 31.7778 171.405 31.9298 170.573 31.9298H167.513V25.5698H170.465C171.217 25.5698 171.805 25.7138 172.229 26.0018C172.653 26.2818 172.865 26.6818 172.865 27.2018C172.865 27.5378 172.773 27.8298 172.589 28.0778C172.413 28.3178 172.165 28.5018 171.845 28.6298ZM168.641 28.3058H170.369C170.809 28.3058 171.141 28.2258 171.365 28.0658C171.597 27.9058 171.713 27.6738 171.713 27.3698C171.713 26.7618 171.265 26.4578 170.369 26.4578H168.641V28.3058ZM170.489 31.0418C170.969 31.0418 171.329 30.9658 171.569 30.8138C171.809 30.6618 171.929 30.4258 171.929 30.1058C171.929 29.7778 171.817 29.5338 171.593 29.3738C171.377 29.2138 171.033 29.1338 170.561 29.1338H168.641V31.0418H170.489ZM175.724 25.5698H176.876V31.9298H175.724V25.5698ZM176.3 24.3458C176.076 24.3458 175.888 24.2738 175.736 24.1298C175.592 23.9858 175.52 23.8098 175.52 23.6018C175.52 23.3938 175.592 23.2178 175.736 23.0738C175.888 22.9218 176.076 22.8458 176.3 22.8458C176.524 22.8458 176.708 22.9178 176.852 23.0618C177.004 23.1978 177.08 23.3698 177.08 23.5778C177.08 23.7938 177.004 23.9778 176.852 24.1298C176.708 24.2738 176.524 24.3458 176.3 24.3458ZM184.702 26.5778H182.374V31.9298H181.222V26.5778H178.894V25.5698H184.702V26.5778ZM186.72 25.5698H187.872V31.9298H186.72V25.5698ZM187.296 24.3458C187.072 24.3458 186.884 24.2738 186.732 24.1298C186.588 23.9858 186.516 23.8098 186.516 23.6018C186.516 23.3938 186.588 23.2178 186.732 23.0738C186.884 22.9218 187.072 22.8458 187.296 22.8458C187.52 22.8458 187.704 22.9178 187.848 23.0618C188 23.1978 188.076 23.3698 188.076 23.5778C188.076 23.7938 188 23.9778 187.848 24.1298C187.704 24.2738 187.52 24.3458 187.296 24.3458ZM195.291 28.6298C196.115 28.8378 196.527 29.3538 196.527 30.1778C196.527 30.7378 196.315 31.1698 195.891 31.4738C195.475 31.7778 194.851 31.9298 194.019 31.9298H190.959V25.5698H193.911C194.663 25.5698 195.251 25.7138 195.675 26.0018C196.099 26.2818 196.311 26.6818 196.311 27.2018C196.311 27.5378 196.219 27.8298 196.035 28.0778C195.859 28.3178 195.611 28.5018 195.291 28.6298ZM192.087 28.3058H193.815C194.255 28.3058 194.587 28.2258 194.811 28.0658C195.043 27.9058 195.159 27.6738 195.159 27.3698C195.159 26.7618 194.711 26.4578 193.815 26.4578H192.087V28.3058ZM193.935 31.0418C194.415 31.0418 194.775 30.9658 195.015 30.8138C195.255 30.6618 195.375 30.4258 195.375 30.1058C195.375 29.7778 195.263 29.5338 195.039 29.3738C194.823 29.2138 194.479 29.1338 194.007 29.1338H192.087V31.0418H193.935Z" fill="white"/>
<path d="M23.625 13.3917C21.358 14.6041 19.2918 16.1612 17.5 18.0077C15.7174 16.1506 13.6495 14.5922 11.375 13.3917C11.795 8.52998 13.86 3.756 17.605 0C21.315 3.7209 23.2925 8.49488 23.625 13.3917ZM17.5 23.6066C21.2625 17.8498 27.685 14.0411 35 14.0411C35 31.5925 18.69 34.8922 17.5 35.1028C16.31 34.9097 0 31.5925 0 14.0411C7.315 14.0411 13.7375 17.8498 17.5 23.6066ZM17.5875 5.5989C16.4325 7.42425 15.6275 9.44266 15.19 11.5488L17.5 13.2513L19.8625 11.5313C19.46 9.42511 18.69 7.40669 17.5875 5.5989ZM17.5 31.5399C17.5 31.5399 28 29.8374 31.045 17.9902C21 21.0617 17.5 30.0129 17.5 30.0129C17.5 30.0129 12.25 19.3065 3.955 18.0077C7 29.8374 17.5 31.5399 17.5 31.5399Z" fill="#E5E5E5"/>
</svg>
